<?xml version="1.0" encoding="UTF-8"?>
<svg width="922px" height="205px" viewBox="0 0 922 205" version="1.1" xmlns="http://www.w3.org/2000/svg" xmlns:xlink="http://www.w3.org/1999/xlink">
    <title>Modern People Brand Deck</title>
    <g id="Modern-People-Brand-Deck" stroke="none" stroke-width="1" fill="none" fill-rule="evenodd">
        <g id="Group-161" transform="translate(0.000000, 0.000000)">
            <path d="M105.9052,125.6642 C120.5912,125.6642 127.6692,114.6942 127.6692,99.7422 C127.6692,84.8802 120.5912,73.9092 105.9052,73.9092 C91.1302,73.9092 83.9642,84.8802 83.9642,99.7422 C83.9642,114.6942 91.1302,125.6642 105.9052,125.6642 M105.9052,67.7162 C124.1302,67.7162 134.9232,81.6062 134.9232,99.7422 C134.9232,117.9682 124.1302,131.8572 105.9052,131.8572 C87.5032,131.8572 76.7102,117.9682 76.7102,99.7422 C76.7102,81.6062 87.5032,67.7162 105.9052,67.7162" id="Fill-135" fill="#080808"></path>
            <path d="M165.0093,124.7794 C176.0683,124.7794 188.9843,122.8334 188.9843,99.7424 C188.9843,76.7404 176.0683,74.7944 165.0093,74.7944 L152.4463,74.7944 L152.4463,124.7794 L165.0093,124.7794 Z M196.2393,99.7424 C196.2393,126.6374 180.1373,130.9724 165.0093,130.9724 L145.1923,130.9724 L145.1923,68.6004 L165.0093,68.6004 C180.1373,68.6004 196.2393,72.9354 196.2393,99.7424 L196.2393,99.7424 Z" id="Fill-137" fill="#080808"></path>
            <polygon id="Fill-139" fill="#080808" points="206.5073 130.9727 206.5073 68.6007 245.1693 68.6007 245.1693 74.7937 213.7613 74.7937 213.7613 96.6467 240.7453 96.6467 240.7453 102.8387 213.7613 102.8387 213.7613 124.7797 245.1693 124.7797 245.1693 130.9727"></polygon>
            <path d="M262.6894,99.7423 L276.1374,99.7423 C286.7534,99.7423 293.2114,98.6803 293.2114,87.2683 C293.2114,75.7673 286.7534,74.7943 276.1374,74.7943 L262.6894,74.7943 L262.6894,99.7423 Z M255.4354,130.9723 L255.4354,68.6003 L276.1374,68.6003 C291.0004,68.6003 300.4664,72.0523 300.4664,86.0293 C300.4664,95.4073 295.6004,99.5653 288.8764,100.7163 L288.8764,102.8393 L296.3084,102.8393 C299.8474,102.8393 301.2624,104.2553 301.2624,107.5283 L301.2624,130.9723 L294.0074,130.9723 L294.0074,105.9353 L262.6894,105.9353 L262.6894,130.9723 L255.4354,130.9723 Z" id="Fill-141" fill="#080808"></path>
            <polygon id="Fill-143" fill="#080808" points="313.1216 130.9727 313.1216 68.6007 327.7196 68.6007 358.3296 127.4337 360.8956 127.4337 359.7456 123.7177 359.7456 68.6007 366.9116 68.6007 366.9116 130.9727 352.3136 130.9727 321.7916 72.1397 319.2256 72.1397 320.3756 75.8557 320.3756 130.9727"></polygon>
            <path d="M634.6255,103.2814 C645.2425,103.2814 653.0275,101.3354 653.0275,88.9494 C653.0275,76.7404 645.2425,74.7944 634.6255,74.7944 L624.2745,74.7944 L624.2745,103.2814 L634.6255,103.2814 Z M660.2815,88.9494 C660.2815,105.3164 650.2845,109.4744 634.5375,109.4744 L624.2745,109.4744 L624.2745,130.9724 L617.0205,130.9724 L617.0205,68.6004 L634.5375,68.6004 C650.2845,68.6004 660.2815,72.6714 660.2815,88.9494 L660.2815,88.9494 Z" id="Fill-145" fill="#080808"></path>
            <polygon id="Fill-147" fill="#080808" points="669.664 130.9727 669.664 68.6007 708.326 68.6007 708.326 74.7937 676.918 74.7937 676.918 96.6467 703.902 96.6467 703.902 102.8387 676.918 102.8387 676.918 124.7797 708.326 124.7797 708.326 130.9727"></polygon>
            <path d="M743.3637,125.6642 C758.0497,125.6642 765.1277,114.6942 765.1277,99.7422 C765.1277,84.8802 758.0497,73.9092 743.3637,73.9092 C728.5887,73.9092 721.4227,84.8802 721.4227,99.7422 C721.4227,114.6942 728.5887,125.6642 743.3637,125.6642 M743.3637,67.7162 C761.5887,67.7162 772.3817,81.6062 772.3817,99.7422 C772.3817,117.9682 761.5887,131.8572 743.3637,131.8572 C724.9617,131.8572 714.1687,117.9682 714.1687,99.7422 C714.1687,81.6062 724.9617,67.7162 743.3637,67.7162" id="Fill-149" fill="#080808"></path>
            <path d="M800.2558,103.2814 C810.8718,103.2814 818.6578,101.3354 818.6578,88.9494 C818.6578,76.7404 810.8718,74.7944 800.2558,74.7944 L789.9048,74.7944 L789.9048,103.2814 L800.2558,103.2814 Z M825.9118,88.9494 C825.9118,105.3164 815.9148,109.4744 800.1678,109.4744 L789.9048,109.4744 L789.9048,130.9724 L782.6508,130.9724 L782.6508,68.6004 L800.1678,68.6004 C815.9148,68.6004 825.9118,72.6714 825.9118,88.9494 L825.9118,88.9494 Z" id="Fill-151" fill="#080808"></path>
            <path d="M840.6909,131.8575 C837.2409,131.9465 835.2949,129.9115 835.2949,126.5485 L835.2949,68.6005 L842.5489,68.6005 L842.5489,125.6645 L873.9559,124.7795 L873.9559,130.9725 L840.6909,131.8575 Z" id="Fill-153" fill="#080808"></path>
            <polygon id="Fill-155" fill="#080808" points="883.3379 130.9727 883.3379 68.6007 921.9999 68.6007 921.9999 74.7937 890.5919 74.7937 890.5919 96.6467 917.5759 96.6467 917.5759 102.8387 890.5919 102.8387 890.5919 124.7797 921.9999 124.7797 921.9999 130.9727"></polygon>
            <path d="M485.4684,114.9128 C476.2374,114.9128 468.7274,107.4028 468.7274,98.1718 C468.7274,88.9398 476.2374,81.4298 485.4684,81.4298 C494.6994,81.4298 502.2094,88.9398 502.2094,98.1718 C502.2094,107.4028 494.6994,114.9128 485.4684,114.9128 M485.4684,77.7538 C474.2104,77.7538 465.0504,86.9128 465.0504,98.1718 C465.0504,109.4298 474.2104,118.5888 485.4684,118.5888 C496.7264,118.5888 505.8864,109.4298 505.8864,98.1718 C505.8864,86.9128 496.7264,77.7538 485.4684,77.7538" id="Fill-157" fill="#000C0B"></path>
            <path d="M560.4745,127.378 C553.6085,134.244 548.7485,139.954 548.7485,150.961 C548.7485,150.993 548.7475,154.14 548.6295,155.974 C548.4715,158.433 546.5545,159.714 545.4265,160.259 C542.7215,161.564 539.2415,161.37 536.9615,159.787 C536.6245,159.553 536.3465,159.327 536.1355,159.116 L532.2665,155.247 C529.5375,152.518 525.9085,151.015 522.0485,151.015 L500.1025,151.015 C496.2425,151.015 492.6135,152.518 489.8835,155.247 L486.2685,159.678 C485.9725,160.001 485.6705,160.477 485.1195,161.359 C484.5015,162.346 482.6225,165.349 481.7805,165.659 C479.9505,166.018 478.1105,165.608 476.6015,164.504 C475.1255,163.423 474.1905,161.839 473.9635,160.037 L473.6015,146.734 C473.6015,136.154 469.4805,126.206 461.9985,118.724 C457.8405,114.565 454.7375,109.393 453.0265,103.765 C451.6645,99.287 451.3895,94.044 452.2045,88.199 L454.3265,73.946 C454.4705,73.269 454.5505,72.569 454.5505,71.85 L454.5505,66.978 L463.7305,67.241 C467.3705,67.344 469.3935,66.811 470.9555,65.336 L473.9825,62.478 C475.1875,61.34 476.7645,60.738 478.4195,60.787 L492.4045,61.188 C494.0615,61.235 495.5995,61.925 496.7375,63.129 L499.1325,65.665 C500.9435,67.584 503.3945,68.682 506.0575,68.758 L529.6825,69.108 L529.6825,69.129 L533.2505,69.231 C533.5415,69.239 533.8215,69.243 534.0935,69.243 C537.2085,69.243 539.0385,68.682 540.4755,67.326 L543.5015,64.468 C544.7065,63.33 546.2855,62.737 547.8835,62.775 L562.1865,63.618 C561.3235,65.648 560.3045,67.639 559.1165,69.57 C558.1015,71.22 557.5655,73.115 557.5655,75.052 L557.5655,77.759 C557.4965,77.759 557.4285,77.754 557.3595,77.754 C546.1005,77.754 536.9415,86.913 536.9415,98.171 C536.9415,109.43 546.1005,118.589 557.3595,118.589 C561.4265,118.589 565.2175,117.389 568.4045,115.33 C566.5995,119.824 563.9035,123.949 560.4745,127.378 L560.4745,127.378 Z M540.5355,175.077 C538.0035,174.348 534.3065,173.306 529.4555,171.954 C522.1885,169.93 514.4295,169.608 507.0175,171.023 L495.0865,173.3 C489.7675,174.315 484.2475,172.875 480.1085,169.441 C480.2455,169.447 480.3825,169.457 480.5205,169.457 C481.1765,169.457 481.8355,169.395 482.4875,169.267 C484.6175,168.849 486.3505,166.321 488.2355,163.308 C488.5195,162.855 488.8725,162.291 488.9515,162.19 L492.5475,157.783 C494.5755,155.789 497.2545,154.691 500.1025,154.691 L522.0485,154.691 C524.9265,154.691 527.6325,155.812 529.6675,157.847 L533.5365,161.716 C533.9025,162.081 534.3495,162.449 534.8655,162.807 C535.4875,163.238 536.1605,163.6 536.8705,163.892 C538.1415,167.645 539.4125,171.52 540.5355,175.077 L540.5355,175.077 Z M536.0315,201.116 C535.6475,201.116 534.8885,201.124 533.8185,201.136 C492.6395,201.58 478.9585,199.761 474.7375,198.157 C468.8985,195.938 452.5635,180.721 429.9025,156.395 C434.3225,153.687 438.0145,146.667 440.0395,137.211 C445.3795,142.162 458.3575,154.24 476.8275,171.451 C481.8905,176.169 488.9735,178.211 495.7755,176.911 L507.7065,174.634 C514.5655,173.325 521.7455,173.622 528.4695,175.495 C536.3785,177.699 540.1035,178.769 541.8425,179.287 C543.2895,184.051 544.2785,187.707 544.3315,188.801 C543.3565,191.294 537.8755,200.169 536.0315,201.116 L536.0315,201.116 Z M425.6485,153.944 C423.9115,153.85 422.1595,152.281 420.6655,149.558 L431.4655,149.558 C429.5825,152.468 427.5295,154.043 425.6485,153.944 L425.6485,153.944 Z M408.2155,125.742 C408.2155,114.179 411.5825,106.746 414.3245,105.686 L414.3245,105.826 L415.9415,105.826 C418.6225,107.288 421.7515,114.596 421.7515,125.742 C421.7515,137.688 418.1575,145.226 415.3725,145.882 L414.5945,145.882 C411.8095,145.226 408.2155,137.688 408.2155,125.742 L408.2155,125.742 Z M428.8385,95.11 C431.1025,95.233 433.3485,97.799 435.0555,102.15 L421.5385,102.15 C423.7725,97.572 426.4275,94.975 428.8385,95.11 L428.8385,95.11 Z M433.4285,145.882 L420.7785,145.882 C423.8255,141.361 425.4275,133.394 425.4275,125.742 C425.4275,118.214 423.8765,110.382 420.9255,105.826 L436.2515,105.826 C437.6095,110.912 438.3255,117.537 437.9155,125.105 C437.4525,133.639 435.6955,140.818 433.4285,145.882 L433.4285,145.882 Z M427.7755,90.697 L431.0065,87.466 C434.6225,83.851 439.4285,81.86 444.5415,81.86 C446.4055,81.86 448.1455,81.338 449.6415,80.447 L448.5655,87.675 C447.6735,94.068 447.9915,99.842 449.5095,104.834 C451.3955,111.038 454.8155,116.74 459.3995,121.324 C466.1865,128.111 469.9245,137.136 469.9255,146.789 L470.1535,154.443 L470.2895,160.212 L470.2995,160.344 C465.1995,155.594 459.6145,150.392 454.6285,145.753 C450.5135,141.923 446.8085,138.477 444.1275,135.989 C442.5755,134.549 441.5375,133.585 440.8145,132.93 C441.1785,130.502 441.4425,127.954 441.5865,125.304 C442.6085,106.441 437.2135,91.882 429.0375,91.439 C428.6135,91.416 428.1935,91.443 427.7755,91.495 L427.7755,90.697 Z M481.2895,3.677 L522.2875,3.677 C538.1715,3.677 552.2815,11.955 560.0305,25.82 C564.4095,33.653 566.2035,42.281 565.4355,50.746 L555.5615,40.872 C549.5655,34.876 541.5935,31.574 533.1145,31.574 L480.5795,31.574 C472.6455,31.574 465.1855,34.664 459.5755,40.274 C459.3195,40.53 459.0745,40.794 458.8295,41.057 C454.2835,38.4 449.1345,36.983 443.8515,36.983 C439.1715,36.983 434.5245,38.121 430.3635,40.235 C437.3125,19.047 457.5095,3.677 481.2895,3.677 L481.2895,3.677 Z M450.7785,72.812 L450.7125,73.252 C450.0725,76.071 447.5505,78.183 444.5415,78.183 C438.4465,78.183 432.7165,80.557 428.4075,84.866 L427.7755,85.498 L427.7755,56.418 C427.7755,52.615 428.1955,48.909 428.9755,45.333 C433.3155,42.314 438.5605,40.66 443.8515,40.66 C448.2835,40.66 452.6105,41.791 456.4675,43.93 C452.8385,48.952 450.8745,54.963 450.8745,61.279 L450.8745,71.85 C450.8745,72.179 450.8415,72.499 450.7935,72.814 L450.7785,72.812 Z M506.1385,65.083 C504.4815,65.035 502.9425,64.346 501.8055,63.141 L499.4105,60.605 C497.5985,58.686 495.1475,57.588 492.5105,57.513 L478.5245,57.112 C475.8815,57.04 473.3775,57.993 471.4585,59.805 L468.4325,62.663 C467.8935,63.171 467.0925,63.66 463.8355,63.566 L454.5505,63.3 L454.5505,61.279 C454.5505,54.327 457.2585,47.79 462.1745,42.874 C467.0905,37.958 473.6275,35.25 480.5795,35.25 L533.1145,35.25 C540.6125,35.25 547.6605,38.17 552.9625,43.471 L564.7695,55.278 L564.7735,55.274 C564.4525,56.868 564.0395,58.451 563.5335,60.014 L548.0445,59.102 C545.4055,59.031 542.8965,59.983 540.9775,61.795 L537.9515,64.653 C537.4135,65.161 536.6165,65.65 533.3555,65.556 L530.4715,65.473 L530.4715,65.443 L506.1385,65.083 Z M574.1005,98.171 C574.1005,107.403 566.5895,114.913 557.3595,114.913 C548.1285,114.913 540.6175,107.403 540.6175,98.171 C540.6175,88.94 548.1285,81.43 557.3595,81.43 C566.5895,81.43 574.1005,88.94 574.1005,98.171 L574.1005,98.171 Z M577.7765,98.171 C577.7765,88.241 570.6485,79.948 561.2415,78.129 L561.2415,75.052 C561.2415,73.796 561.5895,72.566 562.2475,71.496 C571.2775,56.816 571.6485,39.07 563.2405,24.026 C554.8315,8.982 539.5225,0 522.2875,0 L481.2895,0 C449.7555,0 424.0995,25.309 424.0995,56.418 L424.0995,92.955 C421.6325,94.664 419.3805,97.787 417.5015,102.15 L416.6785,102.15 C416.1365,101.973 415.5725,101.874 414.9835,101.874 C408.1995,101.874 404.5395,114.171 404.5395,125.742 C404.5395,137.313 408.1995,149.61 414.9835,149.61 C415.2285,149.61 415.4685,149.59 415.7055,149.558 L416.5625,149.558 C419.4115,155.932 422.9315,157.478 425.4495,157.615 C425.5765,157.621 425.7025,157.625 425.8295,157.625 C425.8915,157.625 425.9525,157.617 426.0135,157.615 C426.1885,157.801 426.4975,158.133 426.9295,158.598 C443.5695,176.474 465.1435,198.444 473.4315,201.593 C479.1795,203.777 495.4555,204.88 521.8825,204.88 C525.6665,204.88 529.6595,204.857 533.8585,204.812 C534.9015,204.8 535.6375,204.792 536.0015,204.792 C536.0805,204.792 536.1375,204.794 536.1875,204.793 C540.6965,204.792 547.8215,189.969 547.8735,189.819 C548.0995,189.161 548.6785,187.444 541.0515,164.782 C543.0855,164.861 545.1665,164.466 547.0245,163.569 C550.1725,162.049 552.0955,159.367 552.2975,156.21 C552.4235,154.257 552.4255,151.095 552.4255,150.961 C552.4255,142.063 555.5645,137.487 563.0735,129.978 C567.6585,125.393 571.0785,119.691 572.9635,113.489 C573.0685,113.144 573.1305,112.641 573.2575,111.488 C573.2775,111.305 573.3025,111.081 573.3265,110.874 C576.1075,107.385 577.7765,102.971 577.7765,98.171 L577.7765,98.171 Z" id="Fill-159" fill="#000C0B"></path>
            <polygon id="Fill-134" fill="#080808" points="-5.68434189e-14 130.9727 -5.68434189e-14 68.6007 14.598 68.6007 32.292 127.4337 34.326 127.4337 52.109 68.6007 66.618 68.6007 66.618 130.9727 59.363 130.9727 59.363 75.8557 60.602 72.1397 58.302 72.1397 40.52 130.9727 26.187 130.9727 8.404 72.1397 6.104 72.1397 7.254 75.8557 7.254 130.9727"></polygon>
        </g>
    </g>
</svg>