<?xml version="1.0" encoding="UTF-8"?><svg xmlns="http://www.w3.org/2000/svg" viewBox="0 0 333.86 394.84"><defs><style>.d{fill:#000c0b;}</style></defs><g id="a"/><g id="b"><g id="c"><g><path class="d" d="M155.97,149.85c-21.7,0-39.35,17.65-39.35,39.35s17.65,39.35,39.35,39.35,39.35-17.65,39.35-39.35-17.65-39.35-39.35-39.35Zm0,71.61c-17.79,0-32.26-14.47-32.26-32.26s14.47-32.26,32.26-32.26,32.26,14.47,32.26,32.26-14.47,32.26-32.26,32.26Z"/><path class="d" d="M333.86,189.19c0-19.14-13.74-35.12-31.87-38.63v-5.93c0-2.42,.67-4.79,1.94-6.85,17.4-28.29,18.12-62.49,1.91-91.48C289.64,17.31,260.14,0,226.92,0h-79.01C87.14,0,37.7,48.78,37.7,108.73v70.41c-4.75,3.29-9.09,9.31-12.72,17.72h-1.58c-1.04-.34-2.13-.53-3.27-.53-13.07,0-20.13,23.7-20.13,46s7.05,46,20.13,46c.47,0,.93-.04,1.39-.1h1.65c5.49,12.28,12.27,15.26,17.13,15.53,.24,.01,.49,.02,.73,.02,.12,0,.24-.02,.35-.02,.34,.36,.93,1,1.77,1.89,32.07,34.45,73.64,76.79,89.62,82.86,11.08,4.21,42.44,6.33,93.38,6.33,7.29,0,14.99-.04,23.08-.13,2.01-.02,3.43-.04,4.13-.04,.15,0,.26,0,.36,0,8.69,0,22.42-28.57,22.52-28.86,.43-1.27,1.55-4.58-13.15-48.25,3.92,.15,7.93-.61,11.51-2.34,6.07-2.93,9.77-8.1,10.16-14.18,.24-3.76,.24-9.86,.24-10.12,0-17.15,6.05-25.97,20.52-40.44,8.84-8.84,15.43-19.82,19.06-31.78,.2-.66,.32-1.63,.57-3.86,.04-.35,.09-.78,.13-1.18,5.36-6.72,8.58-15.23,8.58-24.48Zm-7.08,0c0,17.79-14.47,32.26-32.26,32.26s-32.26-14.47-32.26-32.26,14.47-32.26,32.26-32.26,32.26,14.47,32.26,32.26Zm-130.98-63.77c-3.19-.09-6.16-1.42-8.35-3.74l-4.62-4.89c-3.49-3.7-8.21-5.81-13.3-5.96l-26.95-.77c-5.09-.14-9.92,1.7-13.62,5.19l-5.83,5.51c-1.04,.98-2.58,1.92-8.86,1.74l-17.89-.51v-3.9c0-13.4,5.22-26,14.69-35.47,9.47-9.47,22.07-14.69,35.47-14.69h101.25c14.45,0,28.03,5.63,38.25,15.84l22.75,22.75h0c-.62,3.06-1.41,6.11-2.39,9.13l-29.85-1.76c-5.08-.14-9.92,1.7-13.62,5.19l-5.83,5.51c-1.04,.98-2.57,1.92-8.86,1.74l-5.56-.16v-.06l-46.9-.69Zm-106.69,14.9l-.13,.85c-1.23,5.43-6.09,9.5-11.89,9.5-11.75,0-22.79,4.57-31.09,12.88l-1.22,1.22v-56.04c0-7.33,.81-14.47,2.31-21.36,8.36-5.82,18.47-9.01,28.67-9.01,8.54,0,16.88,2.18,24.31,6.3-6.99,9.68-10.78,21.26-10.78,33.43v20.37c0,.63-.06,1.25-.16,1.86h-.03ZM147.91,7.08h79.01c30.61,0,57.8,15.95,72.74,42.67,8.44,15.1,11.9,31.72,10.42,48.04l-19.03-19.03c-11.55-11.55-26.92-17.92-43.26-17.92h-101.25c-15.29,0-29.67,5.95-40.48,16.77-.49,.49-.96,1-1.44,1.51-8.76-5.12-18.68-7.85-28.87-7.85-9.02,0-17.98,2.19-25.99,6.27C63.16,36.71,102.08,7.08,147.91,7.08ZM44.78,174.79l6.23-6.23c6.97-6.97,16.23-10.8,26.08-10.8,3.59,0,6.95-1,9.83-2.72l-2.07,13.93c-1.72,12.32-1.11,23.45,1.82,33.07,3.63,11.95,10.23,22.94,19.06,31.78,13.08,13.08,20.28,30.47,20.29,49.08l.44,14.75,.26,11.12,.02,.25c-9.83-9.16-20.59-19.18-30.2-28.12-7.93-7.38-15.07-14.02-20.24-18.82-2.99-2.78-4.99-4.63-6.39-5.9,.7-4.68,1.21-9.59,1.49-14.7,1.97-36.35-8.43-64.41-24.19-65.26-.82-.04-1.63,0-2.43,.11v-1.54Zm10.89,106.35H31.3c5.87-8.71,8.96-24.07,8.96-38.81s-2.99-29.6-8.68-38.38h29.54c2.62,9.8,4,22.57,3.21,37.16-.89,16.45-4.28,30.28-8.65,40.04Zm-8.85-97.85c4.36,.24,8.69,5.18,11.98,13.57h-26.05c4.31-8.82,9.42-13.83,14.07-13.57ZM7.08,242.33c0-22.28,6.49-36.61,11.77-38.65v.27h3.12c5.17,2.82,11.2,16.9,11.2,38.38,0,23.02-6.93,37.55-12.29,38.81h-1.5c-5.37-1.26-12.29-15.79-12.29-38.81Zm33.6,54.35c-3.35-.18-6.72-3.2-9.6-8.45h20.81c-3.63,5.61-7.58,8.64-11.21,8.45Zm212.73,90.91c-.74,0-2.2,.02-4.26,.04-79.36,.86-105.73-2.65-113.86-5.74-11.25-4.28-42.73-33.6-86.41-80.48,8.52-5.22,15.63-18.75,19.53-36.97,10.29,9.54,35.3,32.82,70.9,65.99,9.76,9.09,23.41,13.03,36.52,10.52l22.99-4.39c13.22-2.52,27.06-1.95,40.01,1.66,15.24,4.25,22.42,6.31,25.77,7.31,2.79,9.18,4.7,16.23,4.8,18.34-1.88,4.8-12.44,21.91-16,23.73Zm8.68-50.18c-4.88-1.41-12.01-3.41-21.35-6.02-14.01-3.9-28.96-4.52-43.24-1.8l-22.99,4.39c-10.25,1.95-20.89-.82-28.87-7.44,.26,.01,.53,.03,.79,.03,1.26,0,2.54-.12,3.79-.37,4.1-.81,7.45-5.68,11.08-11.48,.55-.87,1.23-1.96,1.38-2.15l6.93-8.49c3.91-3.84,9.07-5.96,14.56-5.96h42.29c5.55,0,10.76,2.16,14.68,6.08l7.46,7.46c.7,.7,1.57,1.41,2.56,2.1,1.2,.83,2.5,1.53,3.86,2.09,2.45,7.23,4.9,14.7,7.06,21.55Zm38.43-91.92c-13.23,13.23-22.6,24.24-22.6,45.45,0,.06,0,6.12-.23,9.66-.31,4.74-4,7.21-6.17,8.26-5.21,2.52-11.92,2.14-16.31-.91-.65-.45-1.19-.89-1.59-1.29l-7.46-7.46c-5.26-5.26-12.25-8.16-19.69-8.16h-42.29c-7.44,0-14.43,2.9-19.69,8.16l-6.97,8.54c-.57,.62-1.15,1.54-2.21,3.24-1.19,1.9-4.81,7.69-6.43,8.29-3.53,.69-7.07-.1-9.98-2.23-2.85-2.08-4.65-5.13-5.08-8.61l-.7-25.64c0-20.39-7.94-39.56-22.36-53.98-8.01-8.01-13.99-17.98-17.29-28.83-2.62-8.63-3.16-18.73-1.58-30l4.09-27.47c.28-1.3,.43-2.65,.43-4.04v-9.39l17.69,.51c7.02,.2,10.91-.83,13.92-3.67l5.83-5.51c2.32-2.19,5.36-3.35,8.55-3.26l26.95,.77c3.19,.09,6.16,1.42,8.35,3.74l4.61,4.89c3.49,3.7,8.21,5.81,13.35,5.96l45.53,.67v.04l6.88,.2c.56,.02,1.1,.02,1.62,.02,6,0,9.53-1.08,12.3-3.7l5.83-5.51c2.32-2.19,5.36-3.34,8.44-3.26l27.56,1.62c-1.66,3.91-3.63,7.75-5.92,11.47-1.96,3.18-2.99,6.83-2.99,10.56v5.22c-.13,0-.26-.01-.4-.01-21.7,0-39.35,17.65-39.35,39.35s17.65,39.35,39.35,39.35c7.84,0,15.14-2.31,21.29-6.28-3.48,8.66-8.67,16.61-15.28,23.22Z"/></g></g></g></svg>