<?xml version="1.0" encoding="UTF-8"?><svg xmlns="http://www.w3.org/2000/svg" viewBox="0 0 173.24 204.88"><defs><style>.d{fill:#fff;}</style></defs><g id="a"/><g id="b"><g id="c"><g><path class="d" d="M80.93,77.75c-11.26,0-20.42,9.16-20.42,20.42s9.16,20.42,20.42,20.42,20.42-9.16,20.42-20.42-9.16-20.42-20.42-20.42Zm0,37.16c-9.23,0-16.74-7.51-16.74-16.74s7.51-16.74,16.74-16.74,16.74,7.51,16.74,16.74-7.51,16.74-16.74,16.74Z"/><path class="d" d="M173.24,98.17c0-9.93-7.13-18.22-16.53-20.04v-3.08c0-1.26,.35-2.49,1.01-3.56,9.03-14.68,9.4-32.43,.99-47.47C150.29,8.98,134.98,0,117.75,0h-41C45.22,0,19.56,25.31,19.56,56.42v36.54c-2.47,1.71-4.72,4.83-6.6,9.19h-.82c-.54-.18-1.11-.28-1.7-.28-6.78,0-10.44,12.3-10.44,23.87s3.66,23.87,10.44,23.87c.25,0,.48-.02,.72-.05h.86c2.85,6.37,6.37,7.92,8.89,8.06,.13,0,.25,.01,.38,.01,.06,0,.12,0,.18,0,.18,.19,.48,.52,.92,.98,16.64,17.88,38.21,39.85,46.5,43,5.75,2.18,22.02,3.29,48.45,3.29,3.78,0,7.78-.02,11.98-.07,1.04-.01,1.78-.02,2.14-.02,.08,0,.14,0,.19,0,4.51,0,11.63-14.82,11.69-14.97,.23-.66,.8-2.37-6.82-25.04,2.03,.08,4.11-.32,5.97-1.21,3.15-1.52,5.07-4.2,5.27-7.36,.13-1.95,.13-5.11,.13-5.25,0-8.9,3.14-13.47,10.65-20.98,4.58-4.58,8-10.29,9.89-16.49,.1-.34,.17-.85,.29-2,.02-.18,.04-.41,.07-.61,2.78-3.49,4.45-7.9,4.45-12.7Zm-3.68,0c0,9.23-7.51,16.74-16.74,16.74s-16.74-7.51-16.74-16.74,7.51-16.74,16.74-16.74,16.74,7.51,16.74,16.74Zm-67.96-33.09c-1.66-.05-3.2-.74-4.33-1.94l-2.39-2.54c-1.81-1.92-4.26-3.02-6.9-3.09l-13.99-.4c-2.64-.07-5.15,.88-7.07,2.69l-3.03,2.86c-.54,.51-1.34,1-4.6,.9l-9.29-.27v-2.02c0-6.95,2.71-13.49,7.62-18.41,4.92-4.92,11.45-7.62,18.41-7.62h52.54c7.5,0,14.55,2.92,19.85,8.22l11.81,11.81h0c-.32,1.59-.73,3.17-1.24,4.74l-15.49-.91c-2.64-.07-5.15,.88-7.07,2.69l-3.03,2.86c-.54,.51-1.34,1-4.6,.9l-2.88-.08v-.03l-24.33-.36Zm-55.36,7.73l-.07,.44c-.64,2.82-3.16,4.93-6.17,4.93-6.09,0-11.82,2.37-16.13,6.68l-.63,.63v-29.08c0-3.8,.42-7.51,1.2-11.09,4.34-3.02,9.59-4.67,14.88-4.67,4.43,0,8.76,1.13,12.62,3.27-3.63,5.02-5.59,11.03-5.59,17.35v10.57c0,.33-.03,.65-.08,.96h-.01ZM76.75,3.68h41c15.88,0,29.99,8.28,37.74,22.14,4.38,7.83,6.17,16.46,5.41,24.93l-9.87-9.87c-6-6-13.97-9.3-22.45-9.3h-52.54c-7.93,0-15.39,3.09-21,8.7-.26,.26-.5,.52-.75,.78-4.55-2.66-9.7-4.07-14.98-4.07-4.68,0-9.33,1.14-13.49,3.25C32.77,19.05,52.97,3.68,76.75,3.68ZM23.24,90.7l3.23-3.23c3.62-3.62,8.42-5.61,13.53-5.61,1.86,0,3.6-.52,5.1-1.41l-1.08,7.23c-.89,6.39-.57,12.17,.94,17.16,1.89,6.2,5.31,11.91,9.89,16.49,6.79,6.79,10.53,15.81,10.53,25.47l.23,7.65,.14,5.77v.13c-5.09-4.75-10.68-9.95-15.66-14.59-4.12-3.83-7.82-7.28-10.5-9.76-1.55-1.44-2.59-2.4-3.31-3.06,.36-2.43,.63-4.98,.77-7.63,1.02-18.86-4.37-33.42-12.55-33.87-.42-.02-.84,0-1.26,.06v-.8Zm5.65,55.19h-12.65c3.05-4.52,4.65-12.49,4.65-20.14s-1.55-15.36-4.5-19.92h15.33c1.36,5.09,2.07,11.71,1.66,19.28-.46,8.53-2.22,15.71-4.49,20.78Zm-4.59-50.77c2.26,.12,4.51,2.69,6.22,7.04h-13.52c2.23-4.58,4.89-7.17,7.3-7.04ZM3.68,125.74c0-11.56,3.37-19,6.11-20.06v.14h1.62c2.68,1.46,5.81,8.77,5.81,19.92,0,11.95-3.59,19.48-6.38,20.14h-.78c-2.78-.66-6.38-8.19-6.38-20.14Zm17.43,28.2c-1.74-.09-3.49-1.66-4.98-4.39h10.8c-1.88,2.91-3.94,4.48-5.82,4.39Zm110.38,47.17c-.38,0-1.14,0-2.21,.02-41.18,.44-54.86-1.38-59.08-2.98-5.84-2.22-22.17-17.44-44.83-41.76,4.42-2.71,8.11-9.73,10.14-19.18,5.34,4.95,18.32,17.03,36.79,34.24,5.06,4.72,12.15,6.76,18.95,5.46l11.93-2.28c6.86-1.31,14.04-1.01,20.76,.86,7.91,2.2,11.63,3.27,13.37,3.79,1.45,4.76,2.44,8.42,2.49,9.51-.97,2.49-6.46,11.37-8.3,12.31Zm4.5-26.04c-2.53-.73-6.23-1.77-11.08-3.12-7.27-2.02-15.03-2.35-22.44-.93l-11.93,2.28c-5.32,1.01-10.84-.43-14.98-3.86,.14,0,.27,.02,.41,.02,.66,0,1.32-.06,1.97-.19,2.13-.42,3.86-2.95,5.75-5.96,.28-.45,.64-1.02,.72-1.12l3.6-4.41c2.03-1.99,4.71-3.09,7.55-3.09h21.95c2.88,0,5.58,1.12,7.62,3.16l3.87,3.87c.37,.37,.81,.73,1.33,1.09,.62,.43,1.3,.79,2,1.09,1.27,3.75,2.54,7.63,3.67,11.18Zm19.94-47.7c-6.87,6.87-11.73,12.58-11.73,23.58,0,.03,0,3.18-.12,5.01-.16,2.46-2.08,3.74-3.2,4.28-2.7,1.31-6.18,1.11-8.46-.47-.34-.23-.62-.46-.83-.67l-3.87-3.87c-2.73-2.73-6.36-4.23-10.22-4.23h-21.95c-3.86,0-7.49,1.5-10.22,4.23l-3.62,4.43c-.3,.32-.6,.8-1.15,1.68-.62,.99-2.5,3.99-3.34,4.3-1.83,.36-3.67-.05-5.18-1.16-1.48-1.08-2.41-2.66-2.64-4.47l-.36-13.3c0-10.58-4.12-20.53-11.6-28.01-4.16-4.16-7.26-9.33-8.97-14.96-1.36-4.48-1.64-9.72-.82-15.57l2.12-14.25c.14-.68,.22-1.38,.22-2.1v-4.87l9.18,.26c3.64,.1,5.66-.43,7.23-1.91l3.03-2.86c1.21-1.14,2.78-1.74,4.44-1.69l13.99,.4c1.66,.05,3.19,.74,4.33,1.94l2.39,2.54c1.81,1.92,4.26,3.02,6.93,3.09l23.62,.35v.02l3.57,.1c.29,0,.57,.01,.84,.01,3.12,0,4.95-.56,6.38-1.92l3.03-2.86c1.21-1.14,2.78-1.73,4.38-1.69l14.3,.84c-.86,2.03-1.88,4.02-3.07,5.95-1.01,1.65-1.55,3.55-1.55,5.48v2.71c-.07,0-.14,0-.21,0-11.26,0-20.42,9.16-20.42,20.42s9.16,20.42,20.42,20.42c4.07,0,7.86-1.2,11.05-3.26-1.8,4.49-4.5,8.62-7.93,12.05Z"/></g></g></g></svg>