<?xml version="1.0" encoding="UTF-8"?>
<svg xmlns="http://www.w3.org/2000/svg" viewBox="0 0 2678.55 2980.28">
    <g opacity=".1">
        <path fill="#ff4f00"
            d="M1375.3,1079.09c-140.24-69.93-311.22-12.74-381.16,127.5-69.93,140.24-12.74,311.22,127.5,381.16,140.24,69.93,311.22,12.74,381.16-127.5,69.93-140.24,12.74-311.22-127.5-381.16Zm-230.82,462.86c-114.98-57.34-161.88-197.54-104.54-312.53,57.34-114.99,197.54-161.88,312.53-104.54,114.98,57.34,161.88,197.54,104.54,312.53-57.34,114.99-197.54,161.88-312.53,104.54Z" />
        <path fill="#ff4f00"
            d="M2398.29,1906.81c61.69-123.7,24.42-271.27-81.46-352.37l19.11-38.33c7.8-15.65,19.77-28.8,34.62-38.05,203.66-126.77,318.52-345.51,307.23-585.13-11.29-239.63-146.2-446.6-360.88-553.66l-510.68-254.67C1413.43-111.28,936.64,44.61,743.4,432.11l-226.96,455.12c-41.34,5.96-88.79,30.87-139.31,73.54l-10.24-5.11c-5.65-5.57-12.07-10.3-19.41-13.96-84.5-42.14-206.48,88.31-278.35,232.43-71.87,144.13-102.67,320.05-18.17,362.18,3.05,1.52,6.17,2.76,9.31,3.83l10.68,5.33c-4.1,97.09,30.14,138.21,60.65,155.55,1.54,.87,3.09,1.7,4.67,2.49,.77,.38,1.58,.66,2.35,1.02,1.03,3.4,2.81,9.45,5.31,17.93,96.22,326.03,228.48,733.71,312.16,824.42,58.03,62.91,253.93,177.75,583.11,341.91,47.13,23.5,97,48.02,149.59,73.54,13.07,6.34,22.28,10.81,26.81,13.07,.99,.5,1.69,.86,2.32,1.17,56.17,27.99,237.01-112.39,238.58-113.94,6.9-6.79,24.78-24.58,70.54-354.24,24.85,13.62,53.21,21.63,81.93,22,48.66,.62,89.27-20.85,111.4-58.91,13.7-23.54,33.36-62.92,34.19-64.59,55.28-110.85,122.8-148.34,262.99-195.23,85.59-28.63,163.61-78.41,225.61-143.96,3.45-3.64,7.35-9.53,16.09-23.1,1.39-2.15,3.09-4.79,4.67-7.22,56.33-26.19,104.53-70.81,134.34-130.59Zm-45.79-22.84c-57.34,114.99-197.54,161.88-312.53,104.54-114.98-57.34-161.88-197.54-104.54-312.53,57.34-114.99,197.54-161.88,312.53-104.54,114.98,57.34,161.88,197.54,104.54,312.53Zm-641.02-834.33c-20.34-10.88-35.22-29.03-41.91-51.1l-14.08-46.47c-10.65-35.15-34.36-64.06-66.74-81.38l-171.73-91.86c-32.47-17.32-69.58-21-104.74-10.35l-55.45,16.8c-9.86,2.99-22.88,4.11-62.86-17.3l-114.01-60.99,12.55-25.18c43.19-86.6,117.52-151.21,209.29-181.91,91.78-30.7,190.02-23.82,276.62,19.37l654.39,326.34c93.39,46.57,163.05,126.72,196.16,225.69l73.73,220.41,.08-.03c-13.9,17.87-28.87,35.02-44.89,51.35l-187.28-107.58c-32.42-17.28-69.59-21.01-104.74-10.35l-55.45,16.8c-9.86,2.98-22.83,4.13-62.87-17.3l-35.41-18.94,.19-.38-300.87-155.65Zm-737.59-247.6l-3.55,5.07c-25.49,31.14-70.02,41.78-107.51,23.09-75.92-37.86-162.03-43.88-242.48-16.97l-11.8,3.95,180.64-362.23c23.62-47.37,51.88-90.93,83.8-130.64,72.81-10.64,148.42,1.34,214.33,34.2,55.2,27.53,102.07,68.5,136.83,119.1-76.39,40-138.2,102.68-177.43,181.36l-65.66,131.68c-2.04,4.09-4.44,7.88-7,11.51l-.17-.12ZM1783.4,130.4l510.68,254.67c197.86,98.67,322.19,289.43,332.6,510.28,5.88,124.77-25.37,243.39-87.51,344.07l-61.66-184.34c-37.44-111.93-116.23-202.58-221.85-255.25l-654.39-326.34c-98.83-49.29-210.94-57.13-315.68-22.1-4.78,1.6-9.46,3.36-14.15,5.12-40.12-61.34-95.46-110.97-161.26-143.78-58.3-29.07-123.25-43.77-188.21-43.29C1140.12,48.68,1487.19-17.32,1783.4,130.4ZM576.26,881.93l60.32-20.17c67.49-22.58,139.73-17.52,203.41,14.24,23.22,11.58,48.14,15.9,72.31,14.09l-58.3,83.34c-50.83,74.1-82.74,147.99-94.85,219.61-15.04,88.98-7.86,181.25,20.77,266.83,42.39,126.71,32.89,262.34-27.06,382.59l-44.71,96.75-34.13,72.71-.71,1.7c-34.01-90.85-71.27-190.33-104.56-279.1-27.47-73.27-52.22-139.2-70.16-186.85-10.38-27.58-17.33-46.03-22.27-58.68,19.62-27.98,38.73-58.07,56.98-90.19,129.91-228.61,153.14-443.48,54.04-499.79-5.13-2.92-10.53-5.19-16.06-7.14l4.96-9.95Zm-272.38,722.52l-157.58-78.58c66.03-37.39,135.48-126.67,183.01-221.99,46.76-93.77,76.09-200.96,67.64-276.05l190.91,95.2c-14.68,71.78-46.91,158.75-99.04,250.49-58.77,103.42-125.26,181.93-184.95,230.93Zm258.2-660.95c27.44,15.59,39.49,61.51,33.72,126.31l-168.37-83.96c56.27-43.14,105.47-59,134.65-42.34Zm-447.16,253.46c71.83-144.03,159.94-215.7,200.67-211.88h.09c7.97,.45,15.18,4.88,19.19,11.78h0c24.32,34.87,17.89,145.33-51.34,284.17-74.21,148.8-165.79,220.38-204.56,211.25l-9.7-4.84c-30.61-25.47-28.55-141.68,45.66-290.49Zm41.96,459.57c-21.05-11.96-33.13-42.38-34.83-85.58l134.53,67.09c-41.54,24.55-76.88,31.41-99.7,18.49Zm1081.94,1273.27c-4.77-2.38-14.27-7-27.68-13.5-515.7-250.26-674.81-357.91-717.43-404.1-58.96-63.91-167.9-354.92-299.06-798.7,71.88-6.27,161.47-70.78,245.43-176,35.77,94.84,122.4,325.91,245.55,655.03,33.76,90.21,109.31,159.65,202.11,185.72l162.76,45.74c93.57,26.3,181.15,74.61,253.27,139.71,84.84,76.59,124.58,113.05,143.03,130.3-11.57,68.33-21.95,120.02-28.1,133.97-27.62,24.99-151.02,101.5-179.89,101.84Zm217.86-296.37c-27.02-24.82-66.6-60.76-118.62-107.72-77.95-70.36-172.6-122.57-273.71-150.99l-162.76-45.74c-72.55-20.4-132.37-72.62-162.6-141.12,1.68,.92,3.32,1.91,5.03,2.76,8.17,4.08,16.78,7.39,25.69,9.84,29.12,8.03,66.42-12.69,108.61-38.51,6.35-3.89,14.25-8.72,15.86-9.48l72.17-32.56c37.65-12.25,77.84-9.28,113.31,8.41l273.37,136.32c35.85,17.88,62.6,48.65,75.31,86.64l24.16,72.23c2.28,6.82,5.57,14.17,9.78,21.84,5.06,9.24,11.21,17.93,18.23,25.98-7.47,54.64-15.72,110.8-23.82,162.09Zm544.66-470.3c-128.17,42.87-224.18,83.82-292.55,220.92-.2,.39-19.76,39.58-32.62,61.7-17.25,29.64-49.08,33.69-66.52,33.47-41.8-.54-83.94-24.58-102.5-58.46-2.75-5.01-4.81-9.55-6.13-13.49l-24.16-72.22c-17.05-50.95-52.91-92.22-100.99-116.2l-273.37-136.32c-48.08-23.98-102.62-27.8-153.58-10.75l-72.56,32.73c-5.69,2.19-12.4,6.23-24.75,13.79-13.82,8.46-55.89,34.2-68.3,32.83-25.03-6.89-45.39-23.44-57.33-46.56-11.68-22.63-13.49-48.17-5.12-72.03l78.12-167.95c65.73-131.8,76.19-281.3,29.47-420.98-25.97-77.63-32.48-161.34-18.83-242.07,10.86-64.24,39.99-131.26,86.45-199l114.97-164.37c6-7.53,11.35-15.75,15.82-24.71l30.26-60.69,112.72,60.3c44.7,23.9,73.21,29.82,101.83,21.15l55.45-16.8c22.08-6.68,45.47-4.39,65.77,6.5l171.72,91.86c20.34,10.88,35.22,29.03,41.91,51.1l14.08,46.46c10.65,35.15,34.35,64.06,67.06,81.55l292.1,151.11-.13,.25,43.81,23.44c3.58,1.91,7.04,3.71,10.42,5.39,38.81,19.35,65.09,23.73,91.41,15.76l55.45-16.8c22.08-6.69,45.43-4.27,65.09,6.13l172.93,99.35c-23.36,19.94-48.42,38.4-75.21,55.07-22.89,14.25-41.34,34.53-53.37,58.65l-16.82,33.72c-.86-.44-1.68-.92-2.54-1.35-140.24-69.93-311.22-12.74-381.16,127.5-69.93,140.24-12.74,311.22,127.5,381.16,50.67,25.27,105.34,33.86,157.83,28.02-50.4,44.77-109.6,79.4-173.61,100.81Z" />
    </g>
</svg>